<svg width="1070" height="977" xmlns="http://www.w3.org/2000/svg" xmlns:xlink="http://www.w3.org/1999/xlink" xml:space="preserve" overflow="hidden"><defs><clipPath id="clip0"><rect x="778" y="585" width="1070" height="977"/></clipPath></defs><g clip-path="url(#clip0)" transform="translate(-778 -585)"><path d="M0 0 129.921 0.000360892" stroke="#000000" stroke-width="4.58333" stroke-linecap="round" stroke-linejoin="round" stroke-miterlimit="10" fill="none" fill-rule="evenodd" transform="matrix(1 0 0 -1 844.5 780.5)"/><path d="M1234.27 780.5 1187.5 780.501" stroke="#000000" stroke-width="4.58333" stroke-linecap="round" stroke-linejoin="round" stroke-miterlimit="10" fill="none" fill-rule="evenodd"/><path d="M0 0 0.000360892 46.7717" stroke="#000000" stroke-width="4.58333" stroke-linecap="round" stroke-linejoin="round" stroke-miterlimit="10" fill="none" fill-rule="evenodd" transform="matrix(6.12323e-17 1 1 -6.12323e-17 974.5 780.5)"/><rect x="1024.5" y="741.5" width="163" height="78.0001" stroke="#000000" stroke-width="4.58333" stroke-linecap="round" stroke-linejoin="round" stroke-miterlimit="10" fill="none"/><path d="M0 0 129.921 0.000360892" stroke="#000000" stroke-width="4.58333" stroke-linecap="round" stroke-linejoin="round" stroke-miterlimit="10" fill="none" fill-rule="evenodd" transform="matrix(1 0 0 -1 1234.5 780.5)"/><path d="M0 0 0.000360892 46.7717" stroke="#000000" stroke-width="4.58333" stroke-linecap="round" stroke-linejoin="round" stroke-miterlimit="10" fill="none" fill-rule="evenodd" transform="matrix(1.83697e-16 1 1 -1.83697e-16 1364.5 780.5)"/><path d="M1624.27 780.5 1577.5 780.501" stroke="#000000" stroke-width="4.58333" stroke-linecap="round" stroke-linejoin="round" stroke-miterlimit="10" fill="none" fill-rule="evenodd"/><rect x="0" y="0" width="78" height="164" stroke="#000000" stroke-width="4.58333" stroke-linecap="round" stroke-linejoin="round" stroke-miterlimit="10" fill="none" transform="matrix(1.83697e-16 1 1 -1.83697e-16 1411.5 741.5)"/><path d="M0 0 129.921 0.000360892" stroke="#000000" stroke-width="4.58333" stroke-linecap="round" stroke-linejoin="round" stroke-miterlimit="10" fill="none" fill-rule="evenodd" transform="matrix(1 0 0 -1 1624.5 780.5)"/><path d="M844.5 1559.5 1753.95 1559.5" stroke="#000000" stroke-width="4.58333" stroke-linecap="round" stroke-linejoin="round" stroke-miterlimit="10" fill="none" fill-rule="evenodd"/><path d="M1299.5 1039.5 1299.5 1086.27" stroke="#000000" stroke-width="4.58333" stroke-linecap="round" stroke-linejoin="round" stroke-miterlimit="10" fill="none" fill-rule="evenodd"/><path d="M0 0 0.000360892 46.7717" stroke="#000000" stroke-width="4.58333" stroke-linecap="round" stroke-linejoin="round" stroke-miterlimit="10" fill="none" fill-rule="evenodd" transform="matrix(1 0 0 -1 1299.5 1299.27)"/><rect x="1260.5" y="1086.5" width="78" height="164" stroke="#000000" stroke-width="4.58333" stroke-linecap="round" stroke-linejoin="round" stroke-miterlimit="10" fill="none"/><path d="M0 0 0.000360892 259.843" stroke="#000000" stroke-width="4.58333" stroke-linecap="round" stroke-linejoin="round" stroke-miterlimit="10" fill="none" fill-rule="evenodd" transform="matrix(1 0 0 -1 1299.5 1040.34)"/><path d="M0 0 0.000360892 259.843" stroke="#000000" stroke-width="4.58333" stroke-linecap="round" stroke-linejoin="round" stroke-miterlimit="10" fill="none" fill-rule="evenodd" transform="matrix(1 0 0 -1 1299.5 1559.34)"/><text font-family="Arial,Arial_MSFontService,sans-serif" font-style="italic" font-weight="400" font-size="50" transform="matrix(1 0 0 1 1071.1 798)">Z</text><text font-family="Arial,Arial_MSFontService,sans-serif" font-weight="400" font-size="34" transform="matrix(1 0 0 1 1102.04 810)">a,i</text><text font-family="Arial,Arial_MSFontService,sans-serif" font-style="italic" font-weight="400" font-size="50" transform="matrix(1 0 0 1 1460.87 798)">Z</text><text font-family="Arial,Arial_MSFontService,sans-serif" font-weight="400" font-size="34" transform="matrix(1 0 0 1 1491.8 810)">a,i</text><text font-family="Arial,Arial_MSFontService,sans-serif" font-style="italic" font-weight="400" font-size="50" transform="matrix(1 0 0 1 1265.98 1188)">Z</text><text font-family="Arial,Arial_MSFontService,sans-serif" font-weight="400" font-size="34" transform="matrix(1 0 0 1 1296.92 1200)">b,i</text><path d="M780.5 713.208 887.505 713.208C888.77 713.208 889.796 714.234 889.796 715.5 889.796 716.766 888.77 717.792 887.505 717.792L780.5 717.792C779.234 717.792 778.208 716.765 778.208 715.5 778.208 714.234 779.235 713.208 780.5 713.208ZM882.922 701.75 910.421 715.5 882.921 729.25Z"/><path d="M0 13.0001C-1.65508e-15 5.82033 5.82033-1.65508e-15 13.0001-3.31016e-15 20.1798-6.62033e-15 26.0001 5.82033 26.0001 13.0001 26.0001 20.1798 20.1798 26.0001 13.0001 26.0001 5.82033 26.0001-8.27541e-15 20.1798 0 13.0001Z" fill-rule="evenodd" transform="matrix(-1 0 0 1 857 767)"/><path d="M0 13.0001C-1.65506e-15 5.82033 5.82025-1.65508e-15 12.9999-3.31016e-15 20.1795-6.62033e-15 25.9998 5.82033 25.9998 13.0001 25.9998 20.1798 20.1795 26.0001 12.9999 26.0001 5.82025 26.0001-8.27529e-15 20.1798 0 13.0001Z" fill-rule="evenodd" transform="matrix(-1 0 0 1 1767 767)"/><text font-family="Arial,Arial_MSFontService,sans-serif" font-style="italic" font-weight="400" font-size="50" transform="matrix(1 0 0 1 1715.55 1188)">F</text><text font-family="Arial,Arial_MSFontService,sans-serif" font-weight="400" font-size="34" transform="matrix(1 0 0 1 1746.49 1200)">i+1</text><text font-family="Arial,Arial_MSFontService,sans-serif" font-style="italic" font-weight="400" font-size="50" transform="matrix(1 0 0 1 825.295 1188)">F</text><text font-family="Arial,Arial_MSFontService,sans-serif" font-weight="400" font-size="34" transform="matrix(1 0 0 1 856.233 1200)">i</text><path d="M1689.5 713.208 1796.5 713.208C1797.77 713.208 1798.8 714.234 1798.8 715.5 1798.8 716.766 1797.77 717.792 1796.5 717.792L1689.5 717.792C1688.23 717.792 1687.21 716.765 1687.21 715.5 1687.21 714.234 1688.23 713.208 1689.5 713.208ZM1791.92 701.75 1819.42 715.5 1791.92 729.25Z"/><text font-family="Arial,Arial_MSFontService,sans-serif" font-style="italic" font-weight="400" font-size="50" transform="matrix(1 0 0 1 1716.98 668)">u</text><text font-family="Arial,Arial_MSFontService,sans-serif" font-weight="400" font-size="34" transform="matrix(1 0 0 1 1745.06 680)">i+1</text><text font-family="Arial,Arial_MSFontService,sans-serif" font-style="italic" font-weight="400" font-size="50" transform="matrix(1 0 0 1 826.728 668)">u</text><text font-family="Arial,Arial_MSFontService,sans-serif" font-weight="400" font-size="34" transform="matrix(1 0 0 1 854.801 680)">i</text><path d="M0.572917-7.95718e-07 0.573258 246.092C0.573259 246.409 0.316756 246.665 0.000342591 246.665-0.316071 246.665-0.572574 246.409-0.572575 246.092L-0.572917 7.95718e-07C-0.572917-0.316412-0.316414-0.572916-7.95718e-07-0.572917 0.316412-0.572917 0.572916-0.316414 0.572917-7.95718e-07ZM9.167 241.509 0.000360892 259.843-9.16633 241.509Z" transform="matrix(1 0 0 -1 844.5 1104.34)"/><path d="M0 0 0.000360892 259.843" stroke="#000000" stroke-width="1.14583" stroke-linecap="round" stroke-linejoin="round" stroke-miterlimit="10" fill="none" fill-rule="evenodd" transform="matrix(1 0 0 -1 844.5 1494.34)"/><path d="M0.572917-7.95718e-07 0.573258 246.092C0.573259 246.409 0.316756 246.665 0.000342591 246.665-0.316071 246.665-0.572574 246.409-0.572575 246.092L-0.572917 7.95718e-07C-0.572917-0.316412-0.316414-0.572916-7.95718e-07-0.572917 0.316412-0.572917 0.572916-0.316414 0.572917-7.95718e-07ZM9.167 241.509 0.000360892 259.843-9.16633 241.509Z" transform="matrix(1 0 0 -1 1754.5 1104.34)"/><path d="M0 0 0.000360892 259.843" stroke="#000000" stroke-width="1.14583" stroke-linecap="round" stroke-linejoin="round" stroke-miterlimit="10" fill="none" fill-rule="evenodd" transform="matrix(1 0 0 -1 1754.5 1494.34)"/></g></svg>