<svg width="3282" height="977" xmlns="http://www.w3.org/2000/svg" xmlns:xlink="http://www.w3.org/1999/xlink" xml:space="preserve" overflow="hidden"><defs><clipPath id="clip0"><rect x="125" y="585" width="3282" height="977"/></clipPath></defs><g clip-path="url(#clip0)" transform="translate(-125 -585)"><path d="M3313.5 1039.5 3313.5 1086.27" stroke="#000000" stroke-width="4.58333" stroke-linecap="round" stroke-linejoin="round" stroke-miterlimit="10" fill="none" fill-rule="evenodd"/><path d="M0 0 0.000360892 46.7717" stroke="#000000" stroke-width="4.58333" stroke-linecap="round" stroke-linejoin="round" stroke-miterlimit="10" fill="none" fill-rule="evenodd" transform="matrix(1 0 0 -1 3313.5 1299.27)"/><rect x="3274.5" y="1086.5" width="78" height="164" stroke="#000000" stroke-width="4.58333" stroke-linecap="round" stroke-linejoin="round" stroke-miterlimit="10" fill="none"/><path d="M0 0 0.000360892 259.843" stroke="#000000" stroke-width="4.58333" stroke-linecap="round" stroke-linejoin="round" stroke-miterlimit="10" fill="none" fill-rule="evenodd" transform="matrix(1 0 0 -1 3313.5 1040.34)"/><path d="M0 0 0.000360892 259.843" stroke="#000000" stroke-width="4.58333" stroke-linecap="round" stroke-linejoin="round" stroke-miterlimit="10" fill="none" fill-rule="evenodd" transform="matrix(1 0 0 -1 3313.5 1559.34)"/><text font-family="Arial,Arial_MSFontService,sans-serif" font-style="italic" font-weight="400" font-size="50" transform="matrix(1 0 0 1 3274.03 1188)">Z</text><text font-family="Arial,Arial_MSFontService,sans-serif" font-weight="400" font-size="34" transform="matrix(1 0 0 1 3304.97 1200)">d,0</text><path d="M0 0 129.921 0.000360892" stroke="#000000" stroke-width="4.58333" stroke-linecap="round" stroke-linejoin="round" stroke-miterlimit="10" fill="none" fill-rule="evenodd" transform="matrix(1 0 0 -1 1299.5 780.5)"/><path d="M0 13.0001C-1.65508e-15 5.82033 5.82033-1.65508e-15 13.0001-3.31016e-15 20.1798-6.62033e-15 26.0001 5.82033 26.0001 13.0001 26.0001 20.1798 20.1798 26.0001 13.0001 26.0001 5.82033 26.0001-8.27541e-15 20.1798 0 13.0001Z" fill-rule="evenodd" transform="matrix(-1 0 0 1 1377 767)"/><path d="M1299.5 713.208 1406.5 713.208C1407.77 713.208 1408.8 714.234 1408.8 715.5 1408.8 716.766 1407.77 717.792 1406.5 717.792L1299.5 717.792C1298.23 717.792 1297.21 716.765 1297.21 715.5 1297.21 714.234 1298.23 713.208 1299.5 713.208ZM1401.92 701.75 1429.42 715.5 1401.92 729.25Z"/><text font-family="Arial,Arial_MSFontService,sans-serif" font-style="italic" font-weight="400" font-size="50" transform="matrix(1 0 0 1 1346.41 668)">u</text><text font-family="Arial,Arial_MSFontService,sans-serif" font-weight="400" font-size="34" transform="matrix(1 0 0 1 1374.49 680)">i</text><path d="M195.5 1559.5 3313.61 1559.5" stroke="#000000" stroke-width="4.58333" stroke-linecap="round" stroke-linejoin="round" stroke-miterlimit="10" fill="none" fill-rule="evenodd"/><path d="M520.271 780.5 473.5 780.501" stroke="#000000" stroke-width="4.58333" stroke-linecap="round" stroke-linejoin="round" stroke-miterlimit="10" fill="none" fill-rule="evenodd"/><path d="M0 0 0.000360892 46.7717" stroke="#000000" stroke-width="4.58333" stroke-linecap="round" stroke-linejoin="round" stroke-miterlimit="10" fill="none" fill-rule="evenodd" transform="matrix(6.12323e-17 1 1 -6.12323e-17 260.5 780.5)"/><rect x="309.5" y="741.5" width="164" height="78.0001" stroke="#000000" stroke-width="4.58333" stroke-linecap="round" stroke-linejoin="round" stroke-miterlimit="10" fill="none"/><path d="M0 0 129.921 0.000360892" stroke="#000000" stroke-width="4.58333" stroke-linecap="round" stroke-linejoin="round" stroke-miterlimit="10" fill="none" fill-rule="evenodd" transform="matrix(1 0 0 -1 520.5 780.5)"/><path d="M0 0 0.000360892 46.7717" stroke="#000000" stroke-width="4.58333" stroke-linecap="round" stroke-linejoin="round" stroke-miterlimit="10" fill="none" fill-rule="evenodd" transform="matrix(1.83697e-16 1 1 -1.83697e-16 650.5 780.5)"/><path d="M910.272 780.5 863.5 780.501" stroke="#000000" stroke-width="4.58333" stroke-linecap="round" stroke-linejoin="round" stroke-miterlimit="10" fill="none" fill-rule="evenodd"/><rect x="0" y="0" width="78" height="164" stroke="#000000" stroke-width="4.58333" stroke-linecap="round" stroke-linejoin="round" stroke-miterlimit="10" fill="none" transform="matrix(1.83697e-16 1 1 -1.83697e-16 696.5 741.5)"/><path d="M0 0 129.921 0.000360892" stroke="#000000" stroke-width="4.58333" stroke-linecap="round" stroke-linejoin="round" stroke-miterlimit="10" fill="none" fill-rule="evenodd" transform="matrix(1 0 0 -1 909.5 780.5)"/><path d="M585.5 1039.5 585.5 1086.27" stroke="#000000" stroke-width="4.58333" stroke-linecap="round" stroke-linejoin="round" stroke-miterlimit="10" fill="none" fill-rule="evenodd"/><path d="M0 0 0.000360892 46.7717" stroke="#000000" stroke-width="4.58333" stroke-linecap="round" stroke-linejoin="round" stroke-miterlimit="10" fill="none" fill-rule="evenodd" transform="matrix(1 0 0 -1 585.5 1299.27)"/><rect x="546.5" y="1086.5" width="78.0001" height="164" stroke="#000000" stroke-width="4.58333" stroke-linecap="round" stroke-linejoin="round" stroke-miterlimit="10" fill="none"/><path d="M0 0 0.000360892 259.843" stroke="#000000" stroke-width="4.58333" stroke-linecap="round" stroke-linejoin="round" stroke-miterlimit="10" fill="none" fill-rule="evenodd" transform="matrix(1 0 0 -1 585.5 1040.34)"/><path d="M0 0 0.000360892 259.843" stroke="#000000" stroke-width="4.58333" stroke-linecap="round" stroke-linejoin="round" stroke-miterlimit="10" fill="none" fill-rule="evenodd" transform="matrix(1 0 0 -1 585.5 1559.34)"/><text font-family="Arial,Arial_MSFontService,sans-serif" font-style="italic" font-weight="400" font-size="50" transform="matrix(1 0 0 1 350.805 798)">Z</text><text font-family="Arial,Arial_MSFontService,sans-serif" font-weight="400" font-size="34" transform="matrix(1 0 0 1 381.743 810)">a,1</text><text font-family="Arial,Arial_MSFontService,sans-serif" font-style="italic" font-weight="400" font-size="50" transform="matrix(1 0 0 1 740.569 798)">Z</text><text font-family="Arial,Arial_MSFontService,sans-serif" font-weight="400" font-size="34" transform="matrix(1 0 0 1 771.507 810)">a,1</text><text font-family="Arial,Arial_MSFontService,sans-serif" font-style="italic" font-weight="400" font-size="50" transform="matrix(1 0 0 1 545.687 1188)">Z</text><text font-family="Arial,Arial_MSFontService,sans-serif" font-weight="400" font-size="34" transform="matrix(1 0 0 1 576.625 1200)">b,1</text><path d="M0 13.0001C-1.65506e-15 5.82033 5.82025-1.65508e-15 12.9999-3.31016e-15 20.1795-6.62033e-15 25.9998 5.82033 25.9998 13.0001 25.9998 20.1798 20.1795 26.0001 12.9999 26.0001 5.82025 26.0001-8.27529e-15 20.1798 0 13.0001Z" fill-rule="evenodd" transform="matrix(-1 0 0 1 987 767)"/><path d="M909.5 713.208 1016.5 713.208C1017.77 713.208 1018.8 714.234 1018.8 715.5 1018.8 716.766 1017.77 717.792 1016.5 717.792L909.5 717.792C908.234 717.792 907.208 716.765 907.208 715.5 907.208 714.234 908.234 713.208 909.5 713.208ZM1011.92 701.75 1039.42 715.5 1011.92 729.25Z"/><text font-family="Arial,Arial_MSFontService,sans-serif" font-style="italic" font-weight="400" font-size="50" transform="matrix(1 0 0 1 950.92 668)">u</text><text font-family="Arial,Arial_MSFontService,sans-serif" font-weight="400" font-size="34" transform="matrix(1 0 0 1 978.993 680)">2</text><path d="M909.5 713.208 1016.5 713.208C1017.77 713.208 1018.8 714.234 1018.8 715.5 1018.8 716.766 1017.77 717.792 1016.5 717.792L909.5 717.792C908.234 717.792 907.208 716.765 907.208 715.5 907.208 714.234 908.234 713.208 909.5 713.208ZM1011.92 701.75 1039.42 715.5 1011.92 729.25Z"/><path d="M0 0 64.9606 0.000360892" stroke="#000000" stroke-width="4.58333" stroke-linecap="round" stroke-linejoin="round" stroke-miterlimit="10" fill="none" fill-rule="evenodd" transform="matrix(1 0 0 -1 195.5 780.5)"/><path d="M130.5 713.208 237.505 713.208C238.77 713.208 239.796 714.234 239.796 715.5 239.796 716.766 238.77 717.792 237.505 717.792L130.5 717.792C129.234 717.792 128.208 716.765 128.208 715.5 128.208 714.234 129.234 713.208 130.5 713.208ZM232.921 701.75 260.421 715.5 232.921 729.25Z"/><path d="M0 13.0001C-1.65508e-15 5.82033 5.82033-1.65508e-15 13.0001-3.31016e-15 20.1798-6.62033e-15 26.0001 5.82033 26.0001 13.0001 26.0001 20.1798 20.1798 26.0001 13.0001 26.0001 5.82033 26.0001-8.27541e-15 20.1798 0 13.0001Z" fill-rule="evenodd" transform="matrix(-1 0 0 1 208 767)"/><text font-family="Arial,Arial_MSFontService,sans-serif" font-style="italic" font-weight="400" font-size="50" transform="matrix(1 0 0 1 171.392 668)">u</text><text font-family="Arial,Arial_MSFontService,sans-serif" font-weight="400" font-size="34" transform="matrix(1 0 0 1 199.465 680)">1</text><path d="M0 0 129.921 0.000360892" stroke="#000000" stroke-width="4.58333" stroke-linecap="round" stroke-linejoin="round" stroke-miterlimit="10" fill="none" fill-rule="evenodd" transform="matrix(1 0 0 -1 2469.5 780.5)"/><path d="M0 13.0001C-1.65508e-15 5.82033 5.82033-1.65508e-15 13.0001-3.31016e-15 20.1798-6.62033e-15 26.0001 5.82033 26.0001 13.0001 26.0001 20.1798 20.1798 26.0001 13.0001 26.0001 5.82033 26.0001-8.27541e-15 20.1798 0 13.0001Z" fill-rule="evenodd" transform="matrix(-1 0 0 1 2546 767)"/><path d="M2469.5 713.208 2576.5 713.208C2577.77 713.208 2578.8 714.234 2578.8 715.5 2578.8 716.766 2577.77 717.792 2576.5 717.792L2469.5 717.792C2468.23 717.792 2467.21 716.765 2467.21 715.5 2467.21 714.234 2468.23 713.208 2469.5 713.208ZM2571.92 701.75 2599.42 715.5 2571.92 729.25Z"/><text font-family="Arial,Arial_MSFontService,sans-serif" font-style="italic" font-weight="400" font-size="50" transform="matrix(1 0 0 1 2504.25 668)">u</text><text font-family="Arial,Arial_MSFontService,sans-serif" font-weight="400" font-size="34" transform="matrix(1 0 0 1 2532.32 680)">-</text><text font-family="Arial,Arial_MSFontService,sans-serif" font-weight="400" font-size="34" transform="matrix(1 0 0 1 2543.78 680)">1</text><path d="M0 0 64.9606 0.000360892" stroke="#000000" stroke-width="4.58333" stroke-linecap="round" stroke-linejoin="round" stroke-miterlimit="10" fill="none" fill-rule="evenodd" transform="matrix(1 0 0 -1 3248.5 780.5)"/><path d="M2858.27 780.5 2811.5 780.501" stroke="#000000" stroke-width="4.58333" stroke-linecap="round" stroke-linejoin="round" stroke-miterlimit="10" fill="none" fill-rule="evenodd"/><path d="M0 0 0.000360892 46.7717" stroke="#000000" stroke-width="4.58333" stroke-linecap="round" stroke-linejoin="round" stroke-miterlimit="10" fill="none" fill-rule="evenodd" transform="matrix(6.12323e-17 1 1 -6.12323e-17 2598.5 780.5)"/><rect x="2648.5" y="741.5" width="163" height="78" stroke="#000000" stroke-width="4.58333" stroke-linecap="round" stroke-linejoin="round" stroke-miterlimit="10" fill="none"/><path d="M0 0 129.921 0.000360892" stroke="#000000" stroke-width="4.58333" stroke-linecap="round" stroke-linejoin="round" stroke-miterlimit="10" fill="none" fill-rule="evenodd" transform="matrix(1 0 0 -1 2858.5 780.5)"/><path d="M0 0 0.000360892 46.7717" stroke="#000000" stroke-width="4.58333" stroke-linecap="round" stroke-linejoin="round" stroke-miterlimit="10" fill="none" fill-rule="evenodd" transform="matrix(1.83697e-16 1 1 -1.83697e-16 2988.5 780.5)"/><path d="M3248.27 780.5 3201.5 780.501" stroke="#000000" stroke-width="4.58333" stroke-linecap="round" stroke-linejoin="round" stroke-miterlimit="10" fill="none" fill-rule="evenodd"/><rect x="0" y="0" width="78" height="164" stroke="#000000" stroke-width="4.58333" stroke-linecap="round" stroke-linejoin="round" stroke-miterlimit="10" fill="none" transform="matrix(1.83697e-16 1 1 -1.83697e-16 3035.5 741.5)"/><path d="M2923.5 1039.5 2923.5 1086.27" stroke="#000000" stroke-width="4.58333" stroke-linecap="round" stroke-linejoin="round" stroke-miterlimit="10" fill="none" fill-rule="evenodd"/><path d="M0 0 0.000360892 46.7717" stroke="#000000" stroke-width="4.58333" stroke-linecap="round" stroke-linejoin="round" stroke-miterlimit="10" fill="none" fill-rule="evenodd" transform="matrix(1 0 0 -1 2923.5 1299.27)"/><rect x="2884.5" y="1086.5" width="78" height="164" stroke="#000000" stroke-width="4.58333" stroke-linecap="round" stroke-linejoin="round" stroke-miterlimit="10" fill="none"/><path d="M0 0 0.000360892 259.843" stroke="#000000" stroke-width="4.58333" stroke-linecap="round" stroke-linejoin="round" stroke-miterlimit="10" fill="none" fill-rule="evenodd" transform="matrix(1 0 0 -1 2923.5 1040.34)"/><path d="M0 0 0.000360892 259.843" stroke="#000000" stroke-width="4.58333" stroke-linecap="round" stroke-linejoin="round" stroke-miterlimit="10" fill="none" fill-rule="evenodd" transform="matrix(1 0 0 -1 2923.5 1559.34)"/><text font-family="Arial,Arial_MSFontService,sans-serif" font-style="italic" font-weight="400" font-size="50" transform="matrix(1 0 0 1 2683.66 798)">Z</text><text font-family="Arial,Arial_MSFontService,sans-serif" font-weight="400" font-size="34" transform="matrix(1 0 0 1 2714.6 810)">a,</text><text font-family="Arial,Arial_MSFontService,sans-serif" font-weight="400" font-size="34" transform="matrix(1 0 0 1 2742.67 810)">-</text><text font-family="Arial,Arial_MSFontService,sans-serif" font-weight="400" font-size="34" transform="matrix(1 0 0 1 2754.13 810)">1</text><text font-family="Arial,Arial_MSFontService,sans-serif" font-style="italic" font-weight="400" font-size="50" transform="matrix(1 0 0 1 3073.42 798)">Z</text><text font-family="Arial,Arial_MSFontService,sans-serif" font-weight="400" font-size="34" transform="matrix(1 0 0 1 3104.36 810)">a,</text><text font-family="Arial,Arial_MSFontService,sans-serif" font-weight="400" font-size="34" transform="matrix(1 0 0 1 3132.43 810)">-</text><text font-family="Arial,Arial_MSFontService,sans-serif" font-weight="400" font-size="34" transform="matrix(1 0 0 1 3143.89 810)">1</text><text font-family="Arial,Arial_MSFontService,sans-serif" font-style="italic" font-weight="400" font-size="50" transform="matrix(1 0 0 1 2878.54 1188)">Z</text><text font-family="Arial,Arial_MSFontService,sans-serif" font-weight="400" font-size="34" transform="matrix(1 0 0 1 2909.48 1200)">b,</text><text font-family="Arial,Arial_MSFontService,sans-serif" font-weight="400" font-size="34" transform="matrix(1 0 0 1 2937.55 1200)">-</text><text font-family="Arial,Arial_MSFontService,sans-serif" font-weight="400" font-size="34" transform="matrix(1 0 0 1 2949.01 1200)">1</text><path d="M0 13.0001C-1.65508e-15 5.82033 5.82033-1.65508e-15 13.0001-3.31016e-15 20.1798-6.62033e-15 26.0001 5.82033 26.0001 13.0001 26.0001 20.1798 20.1798 26.0001 13.0001 26.0001 5.82033 26.0001-8.27541e-15 20.1798 0 13.0001Z" fill-rule="evenodd" transform="matrix(-1 0 0 1 3326 767)"/><path d="M3248.5 713.208 3355.5 713.208C3356.77 713.208 3357.8 714.234 3357.8 715.5 3357.8 716.766 3356.77 717.792 3355.5 717.792L3248.5 717.792C3247.23 717.792 3246.21 716.765 3246.21 715.5 3246.21 714.234 3247.23 713.208 3248.5 713.208ZM3350.92 701.75 3378.42 715.5 3350.92 729.25Z"/><text font-family="Arial,Arial_MSFontService,sans-serif" font-style="italic" font-weight="400" font-size="50" transform="matrix(1 0 0 1 3289.5 668)">u</text><text font-family="Arial,Arial_MSFontService,sans-serif" font-weight="400" font-size="34" transform="matrix(1 0 0 1 3317.58 680)">0</text><path d="M195.5 1039.5 195.5 1086.27" stroke="#000000" stroke-width="4.58333" stroke-linecap="round" stroke-linejoin="round" stroke-miterlimit="10" fill="none" fill-rule="evenodd"/><path d="M0 0 0.000360892 46.7717" stroke="#000000" stroke-width="4.58333" stroke-linecap="round" stroke-linejoin="round" stroke-miterlimit="10" fill="none" fill-rule="evenodd" transform="matrix(1 0 0 -1 195.5 1299.27)"/><rect x="156.5" y="1086.5" width="78" height="164" stroke="#000000" stroke-width="4.58333" stroke-linecap="round" stroke-linejoin="round" stroke-miterlimit="10" fill="none"/><path d="M0 0 0.000360892 259.843" stroke="#000000" stroke-width="4.58333" stroke-linecap="round" stroke-linejoin="round" stroke-miterlimit="10" fill="none" fill-rule="evenodd" transform="matrix(1 0 0 -1 195.5 1040.34)"/><path d="M0 0 0.000360892 259.843" stroke="#000000" stroke-width="4.58333" stroke-linecap="round" stroke-linejoin="round" stroke-miterlimit="10" fill="none" fill-rule="evenodd" transform="matrix(1 0 0 -1 195.5 1559.34)"/><text font-family="Arial,Arial_MSFontService,sans-serif" font-style="italic" font-weight="400" font-size="50" transform="matrix(1 0 0 1 155.923 1188)">Z</text><text font-family="Arial,Arial_MSFontService,sans-serif" font-weight="400" font-size="34" transform="matrix(1 0 0 1 186.861 1200)">d,1</text><path d="M1689.27 780.5 1642.5 780.501" stroke="#000000" stroke-width="4.58333" stroke-linecap="round" stroke-linejoin="round" stroke-miterlimit="10" fill="none" fill-rule="evenodd"/><path d="M0 0 0.000360892 46.7717" stroke="#000000" stroke-width="4.58333" stroke-linecap="round" stroke-linejoin="round" stroke-miterlimit="10" fill="none" fill-rule="evenodd" transform="matrix(6.12323e-17 1 1 -6.12323e-17 1429.5 780.5)"/><rect x="1479.5" y="741.5" width="163" height="78" stroke="#000000" stroke-width="4.58333" stroke-linecap="round" stroke-linejoin="round" stroke-miterlimit="10" fill="none"/><path d="M0 0 129.921 0.000360892" stroke="#000000" stroke-width="4.58333" stroke-linecap="round" stroke-linejoin="round" stroke-miterlimit="10" fill="none" fill-rule="evenodd" transform="matrix(1 0 0 -1 1689.5 780.5)"/><path d="M0 0 0.000360892 46.7717" stroke="#000000" stroke-width="4.58333" stroke-linecap="round" stroke-linejoin="round" stroke-miterlimit="10" fill="none" fill-rule="evenodd" transform="matrix(1.83697e-16 1 1 -1.83697e-16 1819.5 780.5)"/><path d="M2079.27 780.5 2032.5 780.501" stroke="#000000" stroke-width="4.58333" stroke-linecap="round" stroke-linejoin="round" stroke-miterlimit="10" fill="none" fill-rule="evenodd"/><rect x="0" y="0" width="78" height="163" stroke="#000000" stroke-width="4.58333" stroke-linecap="round" stroke-linejoin="round" stroke-miterlimit="10" fill="none" transform="matrix(1.83697e-16 1 1 -1.83697e-16 1866.5 741.5)"/><path d="M0 0 0.000360892 259.843" stroke="#000000" stroke-width="4.58333" stroke-linecap="round" stroke-linejoin="round" stroke-miterlimit="10" fill="none" fill-rule="evenodd" transform="matrix(1 0 0 -1 1754.5 1040.34)"/><path d="M0 0 0.000360892 259.843" stroke="#000000" stroke-width="4.58333" stroke-linecap="round" stroke-linejoin="round" stroke-miterlimit="10" fill="none" fill-rule="evenodd" transform="matrix(1 0 0 -1 1754.5 1559.34)"/><text font-family="Arial,Arial_MSFontService,sans-serif" font-style="italic" font-weight="400" font-size="50" transform="matrix(1 0 0 1 1525.83 798)">Z</text><text font-family="Arial,Arial_MSFontService,sans-serif" font-weight="400" font-size="34" transform="matrix(1 0 0 1 1556.76 810)">a,i</text><text font-family="Arial,Arial_MSFontService,sans-serif" font-style="italic" font-weight="400" font-size="50" transform="matrix(1 0 0 1 1915.59 798)">Z</text><text font-family="Arial,Arial_MSFontService,sans-serif" font-weight="400" font-size="34" transform="matrix(1 0 0 1 1946.53 810)">a,i</text><path d="M1754.5 1039.5 1754.5 1086.27" stroke="#000000" stroke-width="4.58333" stroke-linecap="round" stroke-linejoin="round" stroke-miterlimit="10" fill="none" fill-rule="evenodd"/><path d="M0 0 0.000360892 46.7717" stroke="#000000" stroke-width="4.58333" stroke-linecap="round" stroke-linejoin="round" stroke-miterlimit="10" fill="none" fill-rule="evenodd" transform="matrix(1 0 0 -1 1754.5 1299.27)"/><rect x="1715.5" y="1086.5" width="77.9996" height="164" stroke="#000000" stroke-width="4.58333" stroke-linecap="round" stroke-linejoin="round" stroke-miterlimit="10" fill="none"/><text font-family="Arial,Arial_MSFontService,sans-serif" font-style="italic" font-weight="400" font-size="50" transform="matrix(1 0 0 1 1720.71 1188)">Z</text><text font-family="Arial,Arial_MSFontService,sans-serif" font-weight="400" font-size="34" transform="matrix(1 0 0 1 1751.65 1200)">b,i</text><path d="M0 0 129.921 0.000360892" stroke="#000000" stroke-width="4.58333" stroke-linecap="round" stroke-linejoin="round" stroke-miterlimit="10" fill="none" fill-rule="evenodd" transform="matrix(1 0 0 -1 2079.5 780.5)"/><path d="M0 13.0001C-1.65508e-15 5.82033 5.82033-1.65508e-15 13.0001-3.31016e-15 20.1798-6.62033e-15 26.0001 5.82033 26.0001 13.0001 26.0001 20.1798 20.1798 26.0001 13.0001 26.0001 5.82033 26.0001-8.27541e-15 20.1798 0 13.0001Z" fill-rule="evenodd" transform="matrix(-1 0 0 1 2157 767)"/><path d="M2079.5 713.208 2186.5 713.208C2187.77 713.208 2188.8 714.234 2188.8 715.5 2188.8 716.766 2187.77 717.792 2186.5 717.792L2079.5 717.792C2078.23 717.792 2077.21 716.765 2077.21 715.5 2077.21 714.234 2078.23 713.208 2079.5 713.208ZM2181.92 701.75 2209.42 715.5 2181.92 729.25Z"/><text font-family="Arial,Arial_MSFontService,sans-serif" font-style="italic" font-weight="400" font-size="50" transform="matrix(1 0 0 1 2106.75 668)">u</text><text font-family="Arial,Arial_MSFontService,sans-serif" font-weight="400" font-size="34" transform="matrix(1 0 0 1 2134.82 680)">i+1</text><text font-family="Cambria Math,Cambria Math_MSFontService,sans-serif" font-weight="400" font-size="50" transform="matrix(1 0 0 1 1147.81 798)">⋯</text><text font-family="Cambria Math,Cambria Math_MSFontService,sans-serif" font-weight="400" font-size="50" transform="matrix(1 0 0 1 2317.1 798)">⋯</text></g></svg>