<svg width="767" height="614" xmlns="http://www.w3.org/2000/svg" xmlns:xlink="http://www.w3.org/1999/xlink" xml:space="preserve" overflow="hidden"><defs><clipPath id="clip0"><rect x="1000" y="935" width="767" height="614"/></clipPath></defs><g clip-path="url(#clip0)" transform="translate(-1000 -935)"><path d="M0 0 0.000360892 129.921" stroke="#000000" stroke-width="4.58333" stroke-linecap="round" stroke-linejoin="round" stroke-miterlimit="10" fill="none" fill-rule="evenodd" transform="matrix(1 0 0 -1 1338.5 1429.42)"/><path d="M13.7498-1.71874 37.8123-1.71872C38.7615-1.71872 39.531-0.949213 39.531 2.61448e-05 39.531 0.949266 38.7615 1.71878 37.8123 1.71878L13.7498 1.71876C12.8005 1.71876 12.031 0.949247 12.031 7.95702e-06 12.031-0.949232 12.8005-1.71874 13.7498-1.71874ZM51.5623-1.71872 51.5657-1.71872C52.5149-1.71872 53.2845-0.949204 53.2845 3.52409e-05 53.2845 0.949275 52.5149 1.71878 51.5657 1.71878L51.5623 1.71878C50.613 1.71878 49.8435 0.949272 49.8435 3.29654e-05 49.8435-0.949207 50.613-1.71872 51.5623-1.71872ZM65.3157-1.71871 89.3782-1.71869C90.3274-1.71869 91.097-0.949179 91.097 6.02493e-05 91.097 0.9493 90.3274 1.71881 89.3782 1.71881L65.3157 1.71879C64.3665 1.71879 63.597 0.949282 63.597 4.20615e-05 63.597-0.949197 64.3665-1.71871 65.3157-1.71871ZM103.128-1.71868 103.132-1.71868C104.081-1.71868 104.85-0.94917 104.85 6.93454e-05 104.85 0.949309 104.081 1.71882 103.132 1.71882L103.128 1.71882C102.179 1.71882 101.409 0.949307 101.409 6.70698e-05 101.409-0.949172 102.179-1.71868 103.128-1.71868ZM116.882-1.71867 140.944-1.71866C141.893-1.71866 142.663-0.949145 142.663 9.43538e-05 142.663 0.949334 141.893 1.71884 140.944 1.71884L116.882 1.71883C115.932 1.71883 115.163 0.949316 115.163 7.61659e-05 115.163-0.949163 115.932-1.71867 116.882-1.71867ZM154.694-1.71865 154.698-1.71865C155.647-1.71865 156.416-0.949136 156.416 0.000103447 156.416 0.949343 155.647 1.71885 154.698 1.71885L154.694 1.71885C153.745 1.71885 152.975 0.949341 152.975 0.000101177 152.975-0.949138 153.745-1.71865 154.694-1.71865ZM168.448-1.71864 192.51-1.71862C193.459-1.71862 194.229-0.949111 194.229 0.000128458 194.229 0.949368 193.459 1.71888 192.51 1.71888L168.448 1.71886C167.498 1.71886 166.729 0.94935 166.729 0.00011027 166.729-0.949129 167.498-1.71864 168.448-1.71864ZM206.26-1.71861 206.264-1.71861C207.213-1.71861 207.982-0.949102 207.982 0.000137555 207.982 0.949377 207.213 1.71889 206.264 1.71889L206.26 1.71889C205.311 1.71889 204.541 0.949375 204.541 0.000135278 204.541-0.949104 205.311-1.71861 206.26-1.71861ZM220.014-1.7186 244.076-1.71859C245.025-1.71859 245.795-0.949077 245.795 0.000162563 245.795 0.949402 245.025 1.71891 244.076 1.71891L220.014 1.7189C219.064 1.71889 218.295 0.949384 218.295 0.000144375 218.295-0.949095 219.064-1.71861 220.014-1.7186ZM257.826-1.71858 257.829-1.71858C258.779-1.71858 259.548-0.949068 259.548 0.00017166 259.548 0.949411 258.779 1.71892 257.829 1.71892L257.826 1.71892C256.877 1.71892 256.107 0.949409 256.107 0.000169382 256.107-0.94907 256.877-1.71858 257.826-1.71858ZM271.579-1.71857 295.642-1.71855C296.591-1.71855 297.361-0.949043 297.361 0.000196667 297.361 0.949436 296.591 1.71895 295.642 1.71895L271.579 1.71893C270.63 1.71893 269.861 0.949418 269.861 0.000178479 269.861-0.949061 270.63-1.71857 271.579-1.71857ZM309.392-1.71855 309.395-1.71855C310.345-1.71854 311.114-0.949034 311.114 0.00020577 311.114 0.949445 310.345 1.71896 309.395 1.71895L309.392 1.71895C308.443 1.71895 307.673 0.949443 307.673 0.000203481 307.673-0.949036 308.443-1.71855 309.392-1.71855ZM323.145-1.71854 347.208-1.71852C348.157-1.71852 348.927-0.949009 348.927 0.000230772 348.927 0.94947 348.157 1.71898 347.208 1.71898L323.145 1.71896C322.196 1.71896 321.427 0.949452 321.427 0.000212584 321.427-0.949027 322.196-1.71854 323.145-1.71854ZM360.958-1.71851 360.961-1.71851C361.911-1.71851 362.68-0.949 362.68 0.000239874 362.68 0.949479 361.911 1.71899 360.961 1.71899L360.958 1.71899C360.009 1.71899 359.239 0.949477 359.239 0.000237586 359.239-0.949002 360.009-1.71851 360.958-1.71851ZM374.711-1.7185 398.774-1.71849C399.723-1.71849 400.493-0.948975 400.493 0.000264876 400.493 0.949504 399.723 1.71901 398.774 1.71901L374.711 1.719C373.762 1.719 372.993 0.949486 372.993 0.000246688 372.993-0.948993 373.762-1.7185 374.711-1.7185ZM412.524-1.71848 412.527-1.71848C413.476-1.71848 414.246-0.948965 414.246 0.000273979 414.246 0.949513 413.476 1.71902 412.527 1.71902L412.524 1.71902C411.575 1.71902 410.805 0.949511 410.805 0.00027169 410.805-0.948968 411.575-1.71848 412.524-1.71848ZM426.277-1.71847 450.34-1.71845C451.289-1.71845 452.058-0.948941 452.058 0.00029898 452.058 0.949538 451.289 1.71905 450.34 1.71905L426.277 1.71903C425.328 1.71903 424.558 0.94952 424.558 0.000280793 424.558-0.948959 425.328-1.71847 426.277-1.71847ZM464.09-1.71844 464.093-1.71844C465.042-1.71844 465.812-0.948931 465.812 0.000308083 465.812 0.949548 465.042 1.71906 464.093 1.71906L464.09 1.71906C463.14 1.71906 462.371 0.949545 462.371 0.000305795 462.371-0.948934 463.14-1.71844 464.09-1.71844ZM477.843-1.71843 501.906-1.71842C502.855-1.71842 503.624-0.948906 503.624 0.000333085 503.624 0.949573 502.855 1.71908 501.906 1.71908L477.843 1.71907C476.894 1.71907 476.124 0.949554 476.124 0.000314897 476.124-0.948925 476.894-1.71843 477.843-1.71843ZM515.656-1.71841 515.659-1.71841C516.608-1.71841 517.378-0.948897 517.378 0.000342187 517.378 0.949582 516.608 1.71909 515.659 1.71909L515.656 1.71909C514.706 1.71909 513.937 0.949579 513.937 0.000339899 513.937-0.9489 514.706-1.71841 515.656-1.71841ZM529.409-1.7184 531.919-1.7184C532.868-1.7184 533.638-0.948887 533.638 0.000352935 533.638 0.949592 532.868 1.7191 531.919 1.7191L529.409 1.7191C528.46 1.7191 527.69 0.949588 527.69 0.000349002 527.69-0.948891 528.46-1.7184 529.409-1.7184ZM18.3333 9.16668 0 0 18.3333-9.16665ZM527.336-9.16632 545.669 0.000360892 527.336 9.16702Z" transform="matrix(-1 0 0 1 1715.17 1429.5)"/><path d="M0 0 0.000360892 129.921" stroke="#000000" stroke-width="4.58333" stroke-linecap="round" stroke-linejoin="round" stroke-miterlimit="10" fill="none" fill-rule="evenodd" transform="matrix(1 0 0 -1 1234.5 1429.42)"/><path d="M0 0 0.000360892 129.921" stroke="#000000" stroke-width="4.58333" stroke-linecap="round" stroke-linejoin="round" stroke-miterlimit="10" fill="none" fill-rule="evenodd" transform="matrix(1 0 0 -1 1650.5 1429.42)"/><path d="M0 0 0.000360892 129.921" stroke="#000000" stroke-width="4.58333" stroke-linecap="round" stroke-linejoin="round" stroke-miterlimit="10" fill="none" fill-rule="evenodd" transform="matrix(1 0 0 -1 1442.5 1429.42)"/><path d="M0 0 0.000360892 129.921" stroke="#000000" stroke-width="4.58333" stroke-linecap="round" stroke-linejoin="round" stroke-miterlimit="10" fill="none" fill-rule="evenodd" transform="matrix(1 0 0 -1 1546.5 1429.42)"/><path d="M0 0 415.748 0.000360892" stroke="#000000" stroke-width="4.58333" stroke-linecap="round" stroke-linejoin="round" stroke-miterlimit="10" fill="none" fill-rule="evenodd" transform="matrix(-1 0 0 1 1650.25 1299.5)"/><path d="M0 0 0.000360892 64.9606" stroke="#000000" stroke-width="2.29167" stroke-linecap="round" stroke-linejoin="round" stroke-miterlimit="10" fill="none" fill-rule="evenodd" transform="matrix(1 0 0 -1 1442 1493.96)"/><path d="M0 0 0.000360892 64.9606" stroke="#000000" stroke-width="2.29167" stroke-linecap="round" stroke-linejoin="round" stroke-miterlimit="10" fill="none" fill-rule="evenodd" transform="matrix(1 0 0 -1 1234 1493.96)"/><path d="M0 0 0.000360892 64.9606" stroke="#000000" stroke-width="2.29167" stroke-linecap="round" stroke-linejoin="round" stroke-miterlimit="10" fill="none" fill-rule="evenodd" transform="matrix(1 0 0 -1 1650 1493.96)"/><path d="M39 0C60.5391-9.93044e-15 78 17.4609 78 39" stroke="#000000" stroke-width="2.29167" stroke-linecap="round" stroke-linejoin="round" stroke-miterlimit="10" fill="none" fill-rule="evenodd" transform="matrix(1 -1.22465e-16 -1.22465e-16 -1 1156 1533)"/><path d="M39 0C60.5391-9.93044e-15 78 17.4609 78 39" stroke="#000000" stroke-width="2.29167" stroke-linecap="round" stroke-linejoin="round" stroke-miterlimit="10" fill="none" fill-rule="evenodd" transform="matrix(1 -1.22465e-16 -1.22465e-16 -1 1572 1533)"/><path d="M1610.67 1533 1065 1533" stroke="#000000" stroke-width="2.29167" stroke-linecap="round" stroke-linejoin="round" stroke-miterlimit="10" fill="none" fill-rule="evenodd"/><path d="M0 13.0001C-1.65506e-15 5.82033 5.82025-1.65508e-15 12.9999-3.31016e-15 20.1795-6.62033e-15 25.9998 5.82033 25.9998 13.0001 25.9998 20.1798 20.1795 26.0001 12.9999 26.0001 5.82025 26.0001-8.27529e-15 20.1798 0 13.0001Z" stroke="#000000" stroke-width="4.58333" stroke-linecap="round" stroke-linejoin="round" stroke-miterlimit="10" fill="#FFFFFF" fill-rule="evenodd" transform="matrix(-1 0 0 1 1078.5 1520.5)"/><path d="M39 0C60.5391-9.93044e-15 78 17.4609 78 39" stroke="#000000" stroke-width="2.29167" stroke-linecap="round" stroke-linejoin="round" stroke-miterlimit="10" fill="none" fill-rule="evenodd" transform="matrix(1 -1.22465e-16 -1.22465e-16 -1 1364 1533)"/><path d="M0 0 0.000360892 64.9606" stroke="#000000" stroke-width="2.29167" stroke-linecap="round" stroke-linejoin="round" stroke-miterlimit="10" fill="none" fill-rule="evenodd" transform="matrix(1 0 0 -1 1338 1298.96)"/><path d="M0 0 0.000360892 64.9606" stroke="#000000" stroke-width="2.29167" stroke-linecap="round" stroke-linejoin="round" stroke-miterlimit="10" fill="none" fill-rule="evenodd" transform="matrix(1 0 0 -1 1546 1298.96)"/><path d="M1507 1195C1528.54 1195 1546 1212.46 1546 1234" stroke="#000000" stroke-width="2.29167" stroke-linecap="round" stroke-linejoin="round" stroke-miterlimit="10" fill="none" fill-rule="evenodd"/><path d="M1299 1195C1320.54 1195 1338 1212.46 1338 1234" stroke="#000000" stroke-width="2.29167" stroke-linecap="round" stroke-linejoin="round" stroke-miterlimit="10" fill="none" fill-rule="evenodd"/><path d="M1506.73 1195 1065 1195" stroke="#000000" stroke-width="2.29167" stroke-linecap="round" stroke-linejoin="round" stroke-miterlimit="10" fill="none" fill-rule="evenodd"/><path d="M0 13.0001C-1.65506e-15 5.82033 5.82025-1.65508e-15 12.9999-3.31016e-15 20.1795-6.62033e-15 25.9998 5.82033 25.9998 13.0001 25.9998 20.1798 20.1795 26.0001 12.9999 26.0001 5.82025 26.0001-8.27529e-15 20.1798 0 13.0001Z" stroke="#000000" stroke-width="4.58333" stroke-linecap="round" stroke-linejoin="round" stroke-miterlimit="10" fill="#FFFFFF" fill-rule="evenodd" transform="matrix(-1 0 0 1 1078.5 1182.5)"/><path d="M0 0 0.000360892 77.9528" stroke="#000000" stroke-width="1.14583" stroke-linecap="round" stroke-linejoin="round" stroke-miterlimit="10" fill="none" fill-rule="evenodd" transform="matrix(1 0 0 -1 1065.5 1507.45)"/><text font-family="Arial,Arial_MSFontService,sans-serif" font-style="italic" font-weight="400" font-size="50" transform="matrix(1 0 0 1 1048.45 1383)">V</text><path d="M0.572917-2.65239e-06 0.573214 64.2028C0.573215 64.5192 0.316713 64.7757 0.000299887 64.7757-0.316113 64.7757-0.572618 64.5192-0.572619 64.2028L-0.572917 2.65239e-06C-0.572918-0.316411-0.316416-0.572915-2.65239e-06-0.572917 0.316411-0.572918 0.572915-0.316416 0.572917-2.65239e-06ZM9.16694 59.6194 0.000360892 77.9528-9.16639 59.6195Z" transform="matrix(1 0 0 -1 1065.5 1299.45)"/><path d="M0 13.0001C-1.65508e-15 5.82033 5.82033-1.65508e-15 13.0001-3.31016e-15 20.1798-6.62033e-15 26.0001 5.82033 26.0001 13.0001 26.0001 20.1798 20.1798 26.0001 13.0001 26.0001 5.82033 26.0001-8.27541e-15 20.1798 0 13.0001Z" fill-rule="evenodd" transform="matrix(-1 0 0 1 1247 1416)"/><path d="M0 13.0001C-1.65508e-15 5.82033 5.82033-1.65508e-15 13.0001-3.31016e-15 20.1798-6.62033e-15 26.0001 5.82033 26.0001 13.0001 26.0001 20.1798 20.1798 26.0001 13.0001 26.0001 5.82033 26.0001-8.27541e-15 20.1798 0 13.0001Z" fill-rule="evenodd" transform="matrix(-1 0 0 1 1663 1416)"/><text font-family="Arial,Arial_MSFontService,sans-serif" font-style="italic" font-weight="400" font-size="50" transform="matrix(1 0 0 1 1164.52 1500)">u</text><text font-family="Arial,Arial_MSFontService,sans-serif" font-weight="400" font-size="34" transform="matrix(1 0 0 1 1192.6 1512)">i</text><text font-family="Arial,Arial_MSFontService,sans-serif" font-style="italic" font-weight="400" font-size="50" transform="matrix(1 0 0 1 1665.02 1500)">u</text><text font-family="Arial,Arial_MSFontService,sans-serif" font-weight="400" font-size="34" transform="matrix(1 0 0 1 1693.09 1512)">i+1</text><text font-family="Arial,Arial_MSFontService,sans-serif" font-style="italic" font-weight="400" font-size="50" transform="matrix(1 0 0 1 1421.5 1019)">A</text><text font-family="Arial,Arial_MSFontService,sans-serif" font-weight="400" font-size="34" transform="matrix(1 0 0 1 1455.3 1031)">i</text><text font-family="Arial,Arial_MSFontService,sans-serif" font-style="italic" font-weight="400" font-size="50" transform="matrix(1 0 0 1 1432.67 1149)">l</text><text font-family="Arial,Arial_MSFontService,sans-serif" font-weight="400" font-size="34" transform="matrix(1 0 0 1 1444.13 1161)">i</text></g></svg>