<svg width="1070" height="977" xmlns="http://www.w3.org/2000/svg" xmlns:xlink="http://www.w3.org/1999/xlink" xml:space="preserve" overflow="hidden"><defs><clipPath id="clip0"><rect x="778" y="585" width="1070" height="977"/></clipPath></defs><g clip-path="url(#clip0)" transform="translate(-778 -585)"><path d="M0 0 129.921 0.000360892" stroke="#000000" stroke-width="4.58333" stroke-linecap="round" stroke-linejoin="round" stroke-miterlimit="10" fill="none" fill-rule="evenodd" transform="matrix(1 0 0 -1 844.5 780.5)"/><path d="M1234.27 780.5 1187.5 780.501" stroke="#000000" stroke-width="4.58333" stroke-linecap="round" stroke-linejoin="round" stroke-miterlimit="10" fill="none" fill-rule="evenodd"/><path d="M0 0 0.000360892 46.7717" stroke="#000000" stroke-width="4.58333" stroke-linecap="round" stroke-linejoin="round" stroke-miterlimit="10" fill="none" fill-rule="evenodd" transform="matrix(6.12323e-17 1 1 -6.12323e-17 974.5 780.5)"/><rect x="1024.5" y="741.5" width="163" height="78.0001" stroke="#000000" stroke-width="4.58333" stroke-linecap="round" stroke-linejoin="round" stroke-miterlimit="10" fill="none"/><path d="M0 0 129.921 0.000360892" stroke="#000000" stroke-width="4.58333" stroke-linecap="round" stroke-linejoin="round" stroke-miterlimit="10" fill="none" fill-rule="evenodd" transform="matrix(1 0 0 -1 1234.5 780.5)"/><path d="M0 0 0.000360892 46.7717" stroke="#000000" stroke-width="4.58333" stroke-linecap="round" stroke-linejoin="round" stroke-miterlimit="10" fill="none" fill-rule="evenodd" transform="matrix(1.83697e-16 1 1 -1.83697e-16 1364.5 780.5)"/><path d="M1624.27 780.5 1577.5 780.501" stroke="#000000" stroke-width="4.58333" stroke-linecap="round" stroke-linejoin="round" stroke-miterlimit="10" fill="none" fill-rule="evenodd"/><rect x="0" y="0" width="78" height="164" stroke="#000000" stroke-width="4.58333" stroke-linecap="round" stroke-linejoin="round" stroke-miterlimit="10" fill="none" transform="matrix(1.83697e-16 1 1 -1.83697e-16 1411.5 741.5)"/><path d="M0 0 129.921 0.000360892" stroke="#000000" stroke-width="4.58333" stroke-linecap="round" stroke-linejoin="round" stroke-miterlimit="10" fill="none" fill-rule="evenodd" transform="matrix(1 0 0 -1 1624.5 780.5)"/><path d="M844.5 1559.5 1753.95 1559.5" stroke="#000000" stroke-width="4.58333" stroke-linecap="round" stroke-linejoin="round" stroke-miterlimit="10" fill="none" fill-rule="evenodd"/><path d="M1299.5 844.5 1299.5 891.272" stroke="#000000" stroke-width="4.58333" stroke-linecap="round" stroke-linejoin="round" stroke-miterlimit="10" fill="none" fill-rule="evenodd"/><path d="M0 0 0.000360892 46.7717" stroke="#000000" stroke-width="4.58333" stroke-linecap="round" stroke-linejoin="round" stroke-miterlimit="10" fill="none" fill-rule="evenodd" transform="matrix(1 0 0 -1 1299.5 1105.27)"/><rect x="1260.5" y="891.5" width="78" height="164" stroke="#000000" stroke-width="4.58333" stroke-linecap="round" stroke-linejoin="round" stroke-miterlimit="10" fill="none"/><path d="M0 0 0.000360892 64.9606" stroke="#000000" stroke-width="4.58333" stroke-linecap="round" stroke-linejoin="round" stroke-miterlimit="10" fill="none" fill-rule="evenodd" transform="matrix(1 0 0 -1 1299.5 845.461)"/><path d="M0 0 0.000360892 64.9606" stroke="#000000" stroke-width="4.58333" stroke-linecap="round" stroke-linejoin="round" stroke-miterlimit="10" fill="none" fill-rule="evenodd" transform="matrix(1 0 0 -1 1299.5 1559.46)"/><path d="M0 13.0001C-1.65508e-15 5.82033 5.82033-1.65508e-15 13.0001-3.31016e-15 20.1798-6.62033e-15 26.0001 5.82033 26.0001 13.0001 26.0001 20.1798 20.1798 26.0001 13.0001 26.0001 5.82033 26.0001-8.27541e-15 20.1798 0 13.0001Z" fill-rule="evenodd" transform="matrix(-1 0 0 1 857 767)"/><path d="M0 13.0001C-1.65506e-15 5.82033 5.82025-1.65508e-15 12.9999-3.31016e-15 20.1795-6.62033e-15 25.9998 5.82033 25.9998 13.0001 25.9998 20.1798 20.1795 26.0001 12.9999 26.0001 5.82025 26.0001-8.27529e-15 20.1798 0 13.0001Z" fill-rule="evenodd" transform="matrix(-1 0 0 1 1767 767)"/><path d="M1689.5 713.208 1796.5 713.208C1797.77 713.208 1798.8 714.234 1798.8 715.5 1798.8 716.766 1797.77 717.792 1796.5 717.792L1689.5 717.792C1688.23 717.792 1687.21 716.765 1687.21 715.5 1687.21 714.234 1688.23 713.208 1689.5 713.208ZM1791.92 701.75 1819.42 715.5 1791.92 729.25Z"/><text font-family="Arial,Arial_MSFontService,sans-serif" font-style="italic" font-weight="400" font-size="50" transform="matrix(1 0 0 1 1716.98 668)">u</text><text font-family="Arial,Arial_MSFontService,sans-serif" font-weight="400" font-size="34" transform="matrix(1 0 0 1 1745.06 680)">i+1</text><path d="M780.5 713.208 887.505 713.208C888.77 713.208 889.796 714.234 889.796 715.5 889.796 716.766 888.77 717.792 887.505 717.792L780.5 717.792C779.234 717.792 778.208 716.765 778.208 715.5 778.208 714.234 779.235 713.208 780.5 713.208ZM882.922 701.75 910.421 715.5 882.921 729.25Z"/><text font-family="Arial,Arial_MSFontService,sans-serif" font-style="italic" font-weight="400" font-size="50" transform="matrix(1 0 0 1 826.728 668)">u</text><text font-family="Arial,Arial_MSFontService,sans-serif" font-weight="400" font-size="34" transform="matrix(1 0 0 1 854.801 680)">i</text><text font-family="Arial,Arial_MSFontService,sans-serif" font-style="italic" font-weight="400" font-size="50" transform="matrix(1 0 0 1 1071.1 798)">Z</text><text font-family="Arial,Arial_MSFontService,sans-serif" font-weight="400" font-size="34" transform="matrix(1 0 0 1 1102.04 810)">a,i</text><text font-family="Arial,Arial_MSFontService,sans-serif" font-style="italic" font-weight="400" font-size="50" transform="matrix(1 0 0 1 1460.87 798)">Z</text><text font-family="Arial,Arial_MSFontService,sans-serif" font-weight="400" font-size="34" transform="matrix(1 0 0 1 1491.8 810)">a,i</text><text font-family="Arial,Arial_MSFontService,sans-serif" font-style="italic" font-weight="400" font-size="50" transform="matrix(1 0 0 1 1265.98 993)">Z</text><text font-family="Arial,Arial_MSFontService,sans-serif" font-weight="400" font-size="34" transform="matrix(1 0 0 1 1296.92 1005)">b,i</text><text font-family="Arial,Arial_MSFontService,sans-serif" font-style="italic" font-weight="400" font-size="50" transform="matrix(1 0 0 1 1715.55 1188)">F</text><text font-family="Arial,Arial_MSFontService,sans-serif" font-weight="400" font-size="34" transform="matrix(1 0 0 1 1746.49 1200)">i+1</text><text font-family="Arial,Arial_MSFontService,sans-serif" font-style="italic" font-weight="400" font-size="50" transform="matrix(1 0 0 1 825.295 1188)">F</text><text font-family="Arial,Arial_MSFontService,sans-serif" font-weight="400" font-size="34" transform="matrix(1 0 0 1 856.233 1200)">i</text><path d="M0.572917-7.95718e-07 0.573258 246.092C0.573259 246.409 0.316756 246.665 0.000342591 246.665-0.316071 246.665-0.572574 246.409-0.572575 246.092L-0.572917 7.95718e-07C-0.572917-0.316412-0.316414-0.572916-7.95718e-07-0.572917 0.316412-0.572917 0.572916-0.316414 0.572917-7.95718e-07ZM9.167 241.509 0.000360892 259.843-9.16633 241.509Z" transform="matrix(1 0 0 -1 844.5 1104.34)"/><path d="M0 0 0.000360892 259.843" stroke="#000000" stroke-width="1.14583" stroke-linecap="round" stroke-linejoin="round" stroke-miterlimit="10" fill="none" fill-rule="evenodd" transform="matrix(1 0 0 -1 844.5 1494.34)"/><path d="M0.572917-7.95718e-07 0.573258 246.092C0.573259 246.409 0.316756 246.665 0.000342591 246.665-0.316071 246.665-0.572574 246.409-0.572575 246.092L-0.572917 7.95718e-07C-0.572917-0.316412-0.316414-0.572916-7.95718e-07-0.572917 0.316412-0.572917 0.572916-0.316414 0.572917-7.95718e-07ZM9.167 241.509 0.000360892 259.843-9.16633 241.509Z" transform="matrix(1 0 0 -1 1754.5 1104.34)"/><path d="M0 0 0.000360892 259.843" stroke="#000000" stroke-width="1.14583" stroke-linecap="round" stroke-linejoin="round" stroke-miterlimit="10" fill="none" fill-rule="evenodd" transform="matrix(1 0 0 -1 1754.5 1494.34)"/><path d="M1299.5 1494.27 1299.5 1447.5" stroke="#000000" stroke-width="4.58333" stroke-linecap="round" stroke-linejoin="round" stroke-miterlimit="10" fill="none" fill-rule="evenodd"/><path d="M1299.5 1281.27 1299.5 1234.5" stroke="#000000" stroke-width="4.58333" stroke-linecap="round" stroke-linejoin="round" stroke-miterlimit="10" fill="none" fill-rule="evenodd"/><path d="M1273.5 1306.05C1273.47 1292.52 1285.09 1281.53 1299.45 1281.5 1299.47 1281.5 1299.49 1281.5 1299.52 1281.5" stroke="#000000" stroke-width="4.58333" stroke-linecap="round" stroke-linejoin="round" stroke-miterlimit="10" fill="none" fill-rule="evenodd"/><path d="M1299.16 1306.5C1313.52 1306.42 1325.31 1311.72 1325.5 1318.34 1325.68 1324.97 1314.19 1330.41 1299.84 1330.5 1299.69 1330.5 1299.55 1330.5 1299.41 1330.5" stroke="#000000" stroke-width="4.58333" stroke-linecap="round" stroke-linejoin="round" stroke-miterlimit="10" fill="none" fill-rule="evenodd"/><path d="M51.9998 24.4484C52.0301 37.9794 40.4142 48.9716 26.0548 49.0001 26.0315 49.0002 26.0083 49.0002 25.985 49.0002" stroke="#000000" stroke-width="4.58333" stroke-linecap="round" stroke-linejoin="round" stroke-miterlimit="10" fill="none" fill-rule="evenodd" transform="matrix(-1 0 0 1 1325.5 1281.5)"/><path d="M1273.5 1331.05C1273.47 1317.52 1285.09 1306.53 1299.45 1306.5 1299.47 1306.5 1299.49 1306.5 1299.52 1306.5" stroke="#000000" stroke-width="4.58333" stroke-linecap="round" stroke-linejoin="round" stroke-miterlimit="10" fill="none" fill-rule="evenodd"/><path d="M0 0 0.000360892 6.15935" stroke="#000000" stroke-width="4.58333" stroke-linecap="round" stroke-linejoin="round" stroke-miterlimit="10" fill="none" fill-rule="evenodd" transform="matrix(-1 0 0 1 1273.5 1330.5)"/><path d="M1299.15 1337.5C1313.51 1337.41 1325.3 1342.93 1325.5 1349.83 1325.69 1356.73 1314.21 1362.41 1299.85 1362.5 1299.7 1362.5 1299.55 1362.5 1299.4 1362.5" stroke="#000000" stroke-width="4.58333" stroke-linecap="round" stroke-linejoin="round" stroke-miterlimit="10" fill="none" fill-rule="evenodd"/><path d="M51.9998 24.9484C52.0295 38.7555 40.4131 49.9716 26.0537 50.0002 26.0307 50.0002 26.0077 50.0002 25.9847 50.0002" stroke="#000000" stroke-width="4.58333" stroke-linecap="round" stroke-linejoin="round" stroke-miterlimit="10" fill="none" fill-rule="evenodd" transform="matrix(-1 0 0 1 1325.5 1312.5)"/><path d="M1273.5 1362.05C1273.47 1348.52 1285.09 1337.53 1299.45 1337.5 1299.47 1337.5 1299.49 1337.5 1299.52 1337.5" stroke="#000000" stroke-width="4.58333" stroke-linecap="round" stroke-linejoin="round" stroke-miterlimit="10" fill="none" fill-rule="evenodd"/><path d="M0 0 0.000360892 6.15935" stroke="#000000" stroke-width="4.58333" stroke-linecap="round" stroke-linejoin="round" stroke-miterlimit="10" fill="none" fill-rule="evenodd" transform="matrix(-1 0 0 1 1273.5 1362.5)"/><path d="M1299.15 1368.5C1313.51 1368.41 1325.3 1373.93 1325.5 1380.83 1325.69 1387.73 1314.21 1393.41 1299.85 1393.5 1299.7 1393.5 1299.55 1393.5 1299.4 1393.5" stroke="#000000" stroke-width="4.58333" stroke-linecap="round" stroke-linejoin="round" stroke-miterlimit="10" fill="none" fill-rule="evenodd"/><path d="M51.9998 24.9484C52.0295 38.7555 40.4131 49.9716 26.0537 50.0002 26.0307 50.0002 26.0077 50.0002 25.9847 50.0002" stroke="#000000" stroke-width="4.58333" stroke-linecap="round" stroke-linejoin="round" stroke-miterlimit="10" fill="none" fill-rule="evenodd" transform="matrix(-1 0 0 1 1325.5 1343.5)"/><path d="M1273.5 1393.05C1273.47 1379.52 1285.09 1368.53 1299.45 1368.5 1299.47 1368.5 1299.49 1368.5 1299.52 1368.5" stroke="#000000" stroke-width="4.58333" stroke-linecap="round" stroke-linejoin="round" stroke-miterlimit="10" fill="none" fill-rule="evenodd"/><path d="M0 0 0.000360892 6.15935" stroke="#000000" stroke-width="4.58333" stroke-linecap="round" stroke-linejoin="round" stroke-miterlimit="10" fill="none" fill-rule="evenodd" transform="matrix(-1 0 0 1 1273.5 1393.5)"/><path d="M1299.15 1399.5C1313.51 1399.41 1325.3 1404.93 1325.5 1411.83 1325.69 1418.73 1314.21 1424.41 1299.85 1424.5 1299.7 1424.5 1299.55 1424.5 1299.4 1424.5" stroke="#000000" stroke-width="4.58333" stroke-linecap="round" stroke-linejoin="round" stroke-miterlimit="10" fill="none" fill-rule="evenodd"/><path d="M51.9998 24.4484C52.0301 37.9794 40.4142 48.9716 26.0548 49.0001 26.0315 49.0002 26.0083 49.0002 25.985 49.0002" stroke="#000000" stroke-width="4.58333" stroke-linecap="round" stroke-linejoin="round" stroke-miterlimit="10" fill="none" fill-rule="evenodd" transform="matrix(-1 0 0 1 1325.5 1375.5)"/><path d="M1273.5 1424.55C1273.47 1410.74 1285.09 1399.53 1299.45 1399.5 1299.47 1399.5 1299.49 1399.5 1299.52 1399.5" stroke="#000000" stroke-width="4.58333" stroke-linecap="round" stroke-linejoin="round" stroke-miterlimit="10" fill="none" fill-rule="evenodd"/><path d="M51.9998 24.4484C52.0301 37.9794 40.4142 48.9716 26.0548 49.0001 26.0315 49.0002 26.0083 49.0002 25.985 49.0002" stroke="#000000" stroke-width="4.58333" stroke-linecap="round" stroke-linejoin="round" stroke-miterlimit="10" fill="none" fill-rule="evenodd" transform="matrix(-1 0 0 1 1325.5 1398.5)"/><path d="M0 0 0.000360892 129.921" stroke="#000000" stroke-width="4.58333" stroke-linecap="round" stroke-linejoin="round" stroke-miterlimit="10" fill="none" fill-rule="evenodd" transform="matrix(1 0 0 -1 1299.5 1234.42)"/><path d="M0 0 0.000360892 46.7717" stroke="#000000" stroke-width="4.58333" stroke-linecap="round" stroke-linejoin="round" stroke-miterlimit="10" fill="none" fill-rule="evenodd" transform="matrix(1 0 0 -1 1221.5 1494.27)"/><path d="M0 0 0.000360892 46.7717" stroke="#000000" stroke-width="4.58333" stroke-linecap="round" stroke-linejoin="round" stroke-miterlimit="10" fill="none" fill-rule="evenodd" transform="matrix(1 0 0 -1 1221.5 1281.27)"/><path d="M51.9998 24.4484C52.0301 37.9794 40.4142 48.9716 26.0548 49.0001 26.0315 49.0002 26.0083 49.0002 25.985 49.0002" stroke="#000000" stroke-width="4.58333" stroke-linecap="round" stroke-linejoin="round" stroke-miterlimit="10" fill="none" fill-rule="evenodd" transform="matrix(1 0 0 -1 1195.5 1330.5)"/><path d="M26.3361 23.999C11.9779 24.0847 0.187814 18.782 0.00215703 12.1552-0.1835 5.52828 11.3056 0.086671 25.6638 0.000982801 25.8071 0.000127479 25.9504-0.000180837 26.0938 5.78848e-05" stroke="#000000" stroke-width="4.58333" stroke-linecap="round" stroke-linejoin="round" stroke-miterlimit="10" fill="none" fill-rule="evenodd" transform="matrix(1 0 0 -1 1195.5 1330.5)"/><path d="M1247.5 1305.95C1247.53 1319.48 1235.91 1330.47 1221.55 1330.5 1221.53 1330.5 1221.51 1330.5 1221.49 1330.5" stroke="#000000" stroke-width="4.58333" stroke-linecap="round" stroke-linejoin="round" stroke-miterlimit="10" fill="none" fill-rule="evenodd"/><path d="M51.9998 24.4484C52.0301 37.9794 40.4142 48.9715 26.0548 49.0001 26.0315 49.0001 26.0083 49.0002 25.985 49.0001" stroke="#000000" stroke-width="4.58333" stroke-linecap="round" stroke-linejoin="round" stroke-miterlimit="10" fill="none" fill-rule="evenodd" transform="matrix(1 0 0 -1 1195.5 1355.5)"/><path d="M1247.5 1330.5 1247.5 1336.66" stroke="#000000" stroke-width="4.58333" stroke-linecap="round" stroke-linejoin="round" stroke-miterlimit="10" fill="none" fill-rule="evenodd"/><path d="M26.3501 24.999C11.9921 25.0919 0.195775 19.5713 0.00238293 12.6684-0.191009 5.76539 11.2917 0.0940513 25.6498 0.00107363 25.7991 0.000106877 25.9484-0.000241607 26.0977 2.82175e-05" stroke="#000000" stroke-width="4.58333" stroke-linecap="round" stroke-linejoin="round" stroke-miterlimit="10" fill="none" fill-rule="evenodd" transform="matrix(1 0 0 -1 1195.5 1362.5)"/><path d="M1247.5 1337.45C1247.53 1351.26 1235.91 1362.47 1221.55 1362.5 1221.53 1362.5 1221.51 1362.5 1221.48 1362.5" stroke="#000000" stroke-width="4.58333" stroke-linecap="round" stroke-linejoin="round" stroke-miterlimit="10" fill="none" fill-rule="evenodd"/><path d="M51.9998 24.4484C52.0301 37.9794 40.4142 48.9715 26.0548 49.0001 26.0315 49.0001 26.0083 49.0002 25.985 49.0001" stroke="#000000" stroke-width="4.58333" stroke-linecap="round" stroke-linejoin="round" stroke-miterlimit="10" fill="none" fill-rule="evenodd" transform="matrix(1 0 0 -1 1195.5 1386.5)"/><path d="M1247.5 1362.5 1247.5 1368.66" stroke="#000000" stroke-width="4.58333" stroke-linecap="round" stroke-linejoin="round" stroke-miterlimit="10" fill="none" fill-rule="evenodd"/><path d="M26.3501 24.999C11.9921 25.0919 0.195775 19.5713 0.00238293 12.6684-0.191009 5.76539 11.2917 0.0940513 25.6498 0.00107363 25.7991 0.000106877 25.9484-0.000241607 26.0977 2.82175e-05" stroke="#000000" stroke-width="4.58333" stroke-linecap="round" stroke-linejoin="round" stroke-miterlimit="10" fill="none" fill-rule="evenodd" transform="matrix(1 0 0 -1 1195.5 1393.5)"/><path d="M1247.5 1368.45C1247.53 1382.26 1235.91 1393.47 1221.55 1393.5 1221.53 1393.5 1221.51 1393.5 1221.48 1393.5" stroke="#000000" stroke-width="4.58333" stroke-linecap="round" stroke-linejoin="round" stroke-miterlimit="10" fill="none" fill-rule="evenodd"/><path d="M51.9998 24.4484C52.0301 37.9794 40.4142 48.9716 26.0548 49.0001 26.0315 49.0002 26.0083 49.0002 25.985 49.0002" stroke="#000000" stroke-width="4.58333" stroke-linecap="round" stroke-linejoin="round" stroke-miterlimit="10" fill="none" fill-rule="evenodd" transform="matrix(1 0 0 -1 1195.5 1417.5)"/><path d="M1247.5 1393.5 1247.5 1399.66" stroke="#000000" stroke-width="4.58333" stroke-linecap="round" stroke-linejoin="round" stroke-miterlimit="10" fill="none" fill-rule="evenodd"/><path d="M26.3501 24.999C11.9921 25.0919 0.195775 19.5713 0.00238293 12.6684-0.191009 5.76539 11.2917 0.0940513 25.6498 0.00107363 25.7991 0.000106877 25.9484-0.000241607 26.0977 2.82175e-05" stroke="#000000" stroke-width="4.58333" stroke-linecap="round" stroke-linejoin="round" stroke-miterlimit="10" fill="none" fill-rule="evenodd" transform="matrix(1 0 0 -1 1195.5 1424.5)"/><path d="M1247.5 1399.95C1247.53 1413.48 1235.91 1424.47 1221.55 1424.5 1221.53 1424.5 1221.51 1424.5 1221.49 1424.5" stroke="#000000" stroke-width="4.58333" stroke-linecap="round" stroke-linejoin="round" stroke-miterlimit="10" fill="none" fill-rule="evenodd"/><path d="M51.9998 24.9484C52.0295 38.7555 40.4131 49.9716 26.0537 50.0002 26.0307 50.0002 26.0077 50.0002 25.9847 50.0002" stroke="#000000" stroke-width="4.58333" stroke-linecap="round" stroke-linejoin="round" stroke-miterlimit="10" fill="none" fill-rule="evenodd" transform="matrix(1 0 0 -1 1195.5 1449.5)"/><path d="M1247.5 1422.95C1247.53 1436.48 1235.91 1447.47 1221.55 1447.5 1221.53 1447.5 1221.51 1447.5 1221.49 1447.5" stroke="#000000" stroke-width="4.58333" stroke-linecap="round" stroke-linejoin="round" stroke-miterlimit="10" fill="none" fill-rule="evenodd"/><path d="M0 0 181.89 0.000360892" stroke="#000000" stroke-width="4.58333" stroke-linecap="round" stroke-linejoin="round" stroke-miterlimit="10" fill="none" fill-rule="evenodd" transform="matrix(1 0 0 -1 1039.5 1234.5)"/><path d="M0 13.0001C-1.65508e-15 5.82033 5.82033-1.65508e-15 13.0001-3.31016e-15 20.1798-6.62033e-15 26.0001 5.82033 26.0001 13.0001 26.0001 20.1798 20.1798 26.0001 13.0001 26.0001 5.82033 26.0001-8.27541e-15 20.1798 0 13.0001Z" stroke="#000000" stroke-width="4.58333" stroke-linecap="round" stroke-linejoin="round" stroke-miterlimit="10" fill="#FFFFFF" fill-rule="evenodd" transform="matrix(-1 0 0 1 1052.5 1221.5)"/><path d="M0 0 181.89 0.000360892" stroke="#000000" stroke-width="4.58333" stroke-linecap="round" stroke-linejoin="round" stroke-miterlimit="10" fill="none" fill-rule="evenodd" transform="matrix(1 0 0 -1 1039.5 1494.5)"/><path d="M0 12.9999C-1.65508e-15 5.82025 5.82033-1.65506e-15 13.0001-3.31012e-15 20.1798-6.62024e-15 26.0001 5.82025 26.0001 12.9999 26.0001 20.1795 20.1798 25.9998 13.0001 25.9998 5.82033 25.9998-8.27541e-15 20.1795 0 12.9999Z" stroke="#000000" stroke-width="4.58333" stroke-linecap="round" stroke-linejoin="round" stroke-miterlimit="10" fill="#FFFFFF" fill-rule="evenodd" transform="matrix(-1 0 0 1 1052.5 1481.5)"/><text font-family="Arial,Arial_MSFontService,sans-serif" font-weight="400" font-size="50" transform="matrix(1 0 0 1 1350.91 1383)">1:N</text><path d="M974.5 1167.21 1081.5 1167.21C1082.77 1167.21 1083.8 1168.23 1083.8 1169.5 1083.8 1170.77 1082.77 1171.79 1081.5 1171.79L974.5 1171.79C973.234 1171.79 972.208 1170.77 972.208 1169.5 972.208 1168.23 973.234 1167.21 974.5 1167.21ZM1076.92 1155.75 1104.42 1169.5 1076.92 1183.25Z"/><text font-family="Arial,Arial_MSFontService,sans-serif" font-style="italic" font-weight="400" font-size="50" transform="matrix(1 0 0 1 1032.49 1123)">I</text><path d="M1130.5 1234.5 1130.5 1281.27" stroke="#000000" stroke-width="4.58333" stroke-linecap="round" stroke-linejoin="round" stroke-miterlimit="10" fill="none" fill-rule="evenodd"/><path d="M0 0 0.000360892 46.7717" stroke="#000000" stroke-width="4.58333" stroke-linecap="round" stroke-linejoin="round" stroke-miterlimit="10" fill="none" fill-rule="evenodd" transform="matrix(1 0 0 -1 1130.5 1494.27)"/><rect x="1091.5" y="1281.5" width="78" height="164" stroke="#000000" stroke-width="4.58333" stroke-linecap="round" stroke-linejoin="round" stroke-miterlimit="10" fill="none"/><text font-family="Arial,Arial_MSFontService,sans-serif" font-style="italic" font-weight="400" font-size="50" transform="matrix(1 0 0 1 1105.39 1383)">Z</text><text font-family="Arial,Arial_MSFontService,sans-serif" font-weight="400" font-size="34" transform="matrix(1 0 0 1 1136.33 1395)">0</text><path d="M0 0 0.000360892 51.9685" stroke="#000000" stroke-width="1.14583" stroke-linecap="round" stroke-linejoin="round" stroke-miterlimit="10" fill="none" fill-rule="evenodd" transform="matrix(1 0 0 -1 1039.5 1468.47)"/><text font-family="Arial,Arial_MSFontService,sans-serif" font-style="italic" font-weight="400" font-size="50" transform="matrix(1 0 0 1 1022.47 1383)">V</text><path d="M0 0 0.000360892 51.9685" stroke="#000000" stroke-width="1.14583" stroke-linecap="round" stroke-linejoin="round" stroke-miterlimit="10" fill="none" fill-rule="evenodd" transform="matrix(1 0 0 -1 1039.5 1312.47)"/></g></svg>